<?xml version="1.0" encoding="utf-8"?>
<!-- Generator: Adobe Illustrator 23.0.0, SVG Export Plug-In . SVG Version: 6.00 Build 0)  -->
<svg version="1.1" id="레이어_1" xmlns="http://www.w3.org/2000/svg" xmlns:xlink="http://www.w3.org/1999/xlink" x="0px"
	 y="0px" viewBox="0 0 381.9 404.1" style="enable-background:new 0 0 381.9 404.1;" xml:space="preserve">
<style type="text/css">
	.st0{fill:#CCCCCC;}
	.st1{font-family:'FranklinGothic-Medium';}
	.st2{font-size:140.41px;}
</style>
<title>image-temp</title>
<path class="st0" d="M326.3,59.2v152.3c0,14-11.4,25.4-25.4,25.4h-220c-14,0-25.4-11.4-25.4-25.4V59.2c0-14,11.4-25.4,25.4-25.4
	h46.5l6.5-17.4C137.7,6.6,147.2,0,157.7,0h66.4c10.6,0,20,6.6,23.8,16.5l6.6,17.4h46.5C315,33.9,326.3,45.2,326.3,59.2z
	 M254.4,135.4c0-35-28.4-63.5-63.5-63.5s-63.5,28.4-63.5,63.5s28.4,63.5,63.5,63.5C226,198.8,254.4,170.4,254.4,135.4z M237.5,135.4
	c0,25.7-20.8,46.5-46.5,46.5s-46.5-20.8-46.5-46.5s20.8-46.5,46.5-46.5l0,0C216.6,88.9,237.4,109.7,237.5,135.4z"/>
<text transform="matrix(1 0 0 1 0 377.476)" class="st0 st1 st2">Image</text>
</svg>
